<?xml version="1.0" standalone="no"?>
<!DOCTYPE svg PUBLIC "-//W3C//DTD SVG 20010904//EN"
 "http://www.w3.org/TR/2001/REC-SVG-20010904/DTD/svg10.dtd">
<svg version="1.0" xmlns="http://www.w3.org/2000/svg"
 width="300.000000pt" height="300.000000pt" viewBox="0 0 300.000000 300.000000"
 preserveAspectRatio="xMidYMid meet">
  <defs>
    <linearGradient id="oliveGrad" x1="0%" y1="0%" x2="100%" y2="100%">
      <stop offset="0%" stop-color="#e6f3d9"/>
      <stop offset="40%" stop-color="#a7d08c"/>
      <stop offset="100%" stop-color="#356b2d"/>
    </linearGradient>
  </defs>

<metadata>
Created by potrace 1.10, written by Peter Selinger 2001-2011
</metadata>
<g transform="translate(0.000000,300.000000) scale(0.100000,-0.100000)"
fill="#164e2a" stroke="#164e2a">
<path d="M1723 2978 c7 -10 28 -21 47 -24 19 -3 46 -9 60 -14 14 -5 39 -11 55
-14 45 -10 206 -68 201 -73 -4 -5 -107 28 -151 47 -11 5 -69 19 -130 32 -91
18 -142 22 -295 22 -174 -1 -215 -5 -374 -39 -47 -10 -148 -46 -198 -72 -27
-13 -48 -19 -48 -13 0 15 95 55 205 85 145 39 194 55 200 66 19 31 -208 -19
-350 -76 -345 -140 -629 -403 -799 -743 -45 -89 -99 -249 -120 -354 -37 -182
-2 -181 39 2 14 63 29 118 34 123 10 10 9 -6 -2 -33 -3 -8 -14 -53 -24 -100
-14 -67 -18 -131 -18 -305 0 -195 3 -231 24 -318 12 -54 21 -101 18 -103 -5
-5 -47 144 -47 168 0 24 -21 78 -31 78 -25 0 10 -188 61 -335 41 -116 123
-274 197 -378 74 -105 245 -276 350 -350 162 -115 419 -228 556 -244 45 -6 50
-4 40 9 -11 13 -39 24 -111 44 -13 3 -21 8 -18 11 2 3 42 -2 88 -11 159 -30
191 -34 307 -35 124 -2 286 18 413 50 42 10 82 19 90 18 17 -1 -55 -27 -90
-33 -15 -2 -28 -5 -29 -6 -2 -2 -6 -3 -10 -5 -28 -7 -62 -26 -69 -36 -12 -19
77 -5 186 31 406 132 762 459 924 852 47 113 88 259 84 295 l-3 28 -24 -35
-23 -35 7 55 c4 30 10 82 15 115 18 141 7 358 -24 495 -4 14 -9 38 -11 54 -3
16 -10 37 -15 47 -6 10 -10 26 -9 36 0 10 10 -9 20 -42 40 -118 51 -145 61
-145 18 0 2 91 -36 204 -43 129 -110 263 -189 381 -79 117 -284 321 -397 396
-187 124 -406 212 -588 237 -56 8 -59 7 -49 -10z m87 -86 c126 -30 203 -57
325 -117 388 -188 666 -542 766 -974 29 -123 37 -392 16 -527 -23 -143 -60
-263 -121 -390 -172 -359 -467 -621 -835 -744 -212 -71 -476 -92 -691 -55
-113 19 -301 80 -397 128 -598 302 -910 982 -747 1631 136 545 597 969 1154
1061 122 21 416 13 530 -13z m348 -68 c18 -8 34 -20 38 -25 5 -9 -72 25 -85
37 -11 10 19 2 47 -12z m-1278 2 c0 -2 -46 -30 -102 -62 -57 -31 -105 -60
-108 -63 -3 -3 -18 -17 -33 -30 -19 -18 -27 -20 -27 -10 0 13 34 37 145 106
68 43 125 69 125 59z m1417 -81 c35 -25 68 -45 73 -45 6 0 10 -7 10 -15 0 -10
-23 1 -69 35 -38 27 -74 50 -79 50 -6 0 -14 5 -17 10 -14 22 21 7 82 -35z
m145 -102 c71 -61 205 -200 230 -238 14 -22 37 -53 51 -69 14 -17 34 -46 44
-65 10 -20 27 -52 39 -71 22 -37 36 -70 30 -70 -3 0 -25 37 -51 83 -26 45 -73
116 -103 157 -55 75 -255 280 -273 280 -5 0 -9 5 -9 10 0 15 8 12 42 -17z
m-1897 -45 c-79 -70 -135 -131 -187 -200 -38 -50 -66 -75 -56 -49 13 36 269
301 291 301 6 0 -16 -24 -48 -52z m-306 -374 c-24 -38 -57 -102 -74 -142 -40
-92 -53 -106 -21 -21 40 102 127 260 134 241 1 -5 -16 -40 -39 -78z m2614
-116 c3 -7 12 -30 21 -50 23 -54 13 -47 -18 12 -14 28 -22 50 -17 50 5 0 11
-6 14 -12z m2 -1222 c-22 -52 -29 -40 -8 14 9 23 19 38 20 33 2 -5 -4 -26 -12
-47z m-2655 -55 c0 -3 22 -43 50 -88 27 -46 46 -83 42 -83 -11 0 -34 37 -101
163 -44 85 -57 130 -16 58 14 -23 25 -46 25 -50z m2620 -15 c-12 -33 -70 -123
-70 -110 0 5 13 30 28 55 16 24 31 52 35 62 3 9 9 17 11 17 3 0 1 -11 -4 -24z
m-80 -142 c0 -11 -53 -74 -58 -69 -6 6 40 75 51 75 4 0 7 -3 7 -6z m-67 -91
c-7 -2 -13 -9 -13 -15 0 -12 -198 -209 -257 -255 -55 -44 -113 -77 -120 -70
-3 4 5 11 18 16 13 5 40 23 59 40 19 17 50 41 68 54 18 12 79 70 135 129 56
59 107 107 112 107 6 0 4 -3 -2 -6z m-2196 -139 c-7 -7 -97 85 -97 99 0 5 23
-14 52 -42 28 -28 49 -54 45 -57z m154 -126 c8 -3 11 -8 8 -12 -8 -8 -109 72
-109 86 0 6 19 -7 43 -29 24 -22 50 -42 58 -45z m62 -42 c64 -48 198 -118 322
-167 17 -6 24 -13 17 -16 -7 -3 -18 0 -25 5 -7 5 -43 22 -82 37 -38 15 -95 43
-126 61 -31 19 -60 34 -64 34 -3 0 -13 6 -20 13 -33 29 -45 37 -55 37 -5 0
-10 5 -10 10 0 15 8 12 43 -14z m1577 -46 c0 -9 -115 -68 -220 -113 -14 -6
-29 -13 -34 -16 -5 -2 -6 0 -3 6 3 5 46 27 94 48 48 21 104 49 123 61 42 27
40 27 40 14z"/>
<path d="M1420 2781 c0 -78 10 -111 32 -111 14 0 18 5 14 16 -3 9 -6 45 -6 80
0 57 -2 64 -20 64 -17 0 -20 -7 -20 -49z"/>
<path d="M1536 2793 c-3 -21 -6 -57 -6 -80 0 -36 3 -43 20 -43 17 0 20 7 21
53 l0 52 26 -52 c25 -49 60 -75 68 -50 2 7 5 42 8 79 4 59 2 67 -14 71 -17 5
-19 -1 -19 -44 0 -27 -3 -49 -7 -49 -5 0 -19 23 -32 50 -31 62 -56 66 -65 13z"/>
<path d="M1756 2738 c7 -94 9 -98 38 -98 18 0 33 14 65 63 22 35 41 66 41 70
0 4 -9 7 -19 7 -13 0 -29 -17 -48 -49 -15 -27 -31 -47 -35 -45 -4 3 -8 29 -8
59 0 49 -9 65 -36 65 -2 0 -1 -33 2 -72z"/>
<path d="M1164 2782 c-6 -4 -14 -42 -17 -84 -6 -73 -6 -78 13 -78 13 0 20 7
20 19 0 23 51 36 62 16 7 -11 48 -10 48 1 0 2 -21 33 -47 69 -46 64 -57 72
-79 57z m42 -59 c18 -24 17 -30 -6 -36 -17 -4 -20 0 -20 24 0 33 7 36 26 12z"/>
<path d="M1963 2733 c-3 -10 -16 -43 -29 -73 l-23 -55 41 -17 c22 -10 44 -15
49 -12 17 10 9 24 -17 30 -16 4 -24 12 -21 23 2 9 10 14 18 12 29 -7 42 -6 46
6 2 7 -7 15 -21 19 -14 3 -26 10 -26 15 0 16 27 21 48 10 16 -8 21 -7 26 5 4
11 -5 20 -32 31 -20 8 -40 17 -45 20 -4 2 -10 -4 -14 -14z"/>
<path d="M968 2713 c-21 -8 -38 -19 -38 -25 0 -13 54 -138 60 -138 3 0 11 4
19 9 10 7 11 13 1 31 -17 31 -4 37 23 11 15 -13 30 -19 40 -15 24 9 21 19 -9
39 -19 12 -23 20 -15 28 16 16 13 35 -9 57 -24 24 -24 24 -72 3z m52 -38 c0
-8 -9 -19 -19 -24 -15 -9 -20 -7 -24 9 -6 23 0 30 25 30 10 0 18 -7 18 -15z"/>
<path d="M2093 2613 c-38 -62 -40 -69 -25 -81 15 -11 19 -8 36 28 11 22 24 40
28 40 4 0 8 -24 8 -54 0 -69 20 -91 46 -49 9 15 28 45 41 66 13 21 21 42 18
47 -12 19 -30 9 -52 -28 l-22 -37 -2 35 c-1 19 -3 43 -3 52 -1 10 -9 25 -17
33 -14 14 -19 9 -56 -52z"/>
<path d="M808 2627 l-36 -23 42 -66 42 -67 42 28 c31 20 39 30 31 38 -9 9 -18
7 -36 -4 -21 -14 -26 -14 -34 -2 -6 10 -2 19 13 30 12 10 18 21 13 28 -5 9
-12 8 -27 -5 -16 -16 -21 -16 -28 -4 -9 14 6 34 33 43 11 3 1 27 -11 27 -4 0
-23 -11 -44 -23z"/>
<path d="M1375 2579 c-437 -55 -806 -381 -922 -816 -23 -88 -26 -116 -26 -268
0 -151 3 -181 25 -266 35 -131 78 -226 153 -339 71 -107 204 -242 305 -308
388 -255 892 -237 1260 44 287 219 446 562 427 923 -28 533 -431 965 -962
1030 -102 12 -159 12 -260 0z m332 -24 c626 -119 1014 -751 837 -1362 -111
-383 -433 -679 -824 -758 -120 -24 -317 -23 -435 3 -615 137 -983 755 -809
1358 29 101 104 254 164 335 162 218 403 371 666 423 95 19 303 19 401 1z"/>
<path d="M1000 2275 c0 -77 78 -335 102 -335 7 0 9 28 4 88 -5 67 -13 101 -36
147 -31 62 -70 118 -70 100z"/>
<path d="M1159 2095 c-4 -137 -1 -204 11 -224 7 -11 9 3 10 46 0 34 5 65 10
68 6 4 10 -10 10 -34 0 -49 31 -135 63 -175 l24 -30 7 51 c5 40 2 64 -13 104
-21 54 -68 112 -83 103 -4 -3 -8 23 -9 58 0 35 -6 81 -14 103 -12 39 -13 37
-16 -70z"/>
<path d="M850 2180 c0 -6 11 -32 24 -58 29 -56 88 -115 136 -135 25 -11 29
-16 15 -16 -11 -1 -35 8 -53 19 -39 24 -119 43 -141 35 -13 -5 -11 -9 9 -20
31 -18 43 -19 34 -3 -5 7 -2 9 7 6 8 -3 46 -18 84 -33 63 -25 120 -57 70 -39
-11 4 -2 -5 20 -21 61 -41 96 -78 90 -93 -2 -7 1 -12 8 -10 7 2 38 -17 68 -41
l54 -45 -47 50 c-27 27 -48 55 -48 62 0 7 -6 12 -14 12 -17 0 -116 112 -116
131 -1 17 -29 68 -30 54 0 -5 -9 3 -19 19 -17 26 -136 136 -147 136 -2 0 -4
-5 -4 -10z"/>
<path d="M1470 2049 c0 -26 59 -160 89 -198 14 -19 19 -31 12 -26 -8 5 -5 -6
7 -23 13 -17 27 -34 32 -37 11 -7 2 22 -14 45 -8 12 -8 13 4 3 8 -7 18 -13 23
-13 5 0 -13 24 -40 54 -33 36 -59 79 -81 132 -17 44 -31 72 -32 63z"/>
<path d="M1608 2035 c-11 -36 -7 -120 8 -150 13 -27 14 -28 10 -5 -2 14 -7 40
-11 58 -4 20 -3 32 4 32 6 0 13 -12 17 -27 9 -44 12 -50 13 -25 1 13 -4 33
-11 45 -6 12 -15 38 -18 57 -5 28 -7 31 -12 15z"/>
<path d="M1709 1961 c-29 -29 -33 -47 -31 -126 1 -45 19 -169 33 -232 11 -52
11 -63 0 -63 -5 0 -12 14 -16 30 -4 17 -11 28 -16 24 -5 -3 -5 -13 1 -25 6
-11 8 -24 5 -29 -3 -5 -1 -12 5 -15 6 -4 17 -21 25 -38 l14 -32 -5 35 c-5 36
16 103 37 116 9 5 10 -1 5 -22 -3 -16 -9 -55 -13 -86 -3 -35 -10 -55 -16 -51
-6 3 -7 1 -3 -6 4 -6 2 -19 -5 -27 -10 -12 -7 -20 13 -42 14 -15 33 -39 43
-54 l17 -27 -44 17 c-23 9 -49 22 -56 29 -57 55 -179 123 -219 122 -26 0 -26
-1 -7 -10 11 -6 28 -24 38 -40 10 -16 29 -37 43 -46 23 -16 24 -17 7 -24 -13
-5 -7 -7 21 -8 79 -3 100 -6 107 -16 15 -21 7 -27 -27 -21 -53 10 -42 -1 19
-18 47 -14 53 -18 49 -39 l-5 -24 -63 32 c-90 46 -105 49 -66 16 18 -16 64
-44 102 -63 l68 -33 -37 -6 c-20 -4 -41 -3 -47 1 -5 5 -21 8 -35 7 -14 0 -40
3 -59 7 -21 5 -31 5 -28 -1 4 -6 -4 -8 -19 -5 -16 3 -30 -1 -35 -9 -13 -20
-11 -31 4 -22 20 13 103 15 91 3 -6 -6 -18 -12 -25 -13 -27 -4 -146 -104 -135
-114 6 -7 104 26 136 45 14 9 39 28 56 44 35 33 101 46 145 28 15 -7 36 -10
46 -8 13 2 9 7 -17 20 -19 10 -28 18 -20 18 8 0 0 10 -17 21 -31 19 -43 51
-25 63 7 4 102 -79 102 -90 0 -2 -8 -4 -17 -4 -10 0 4 -11 30 -24 26 -14 58
-34 70 -45 103 -93 258 -214 265 -206 4 4 -11 21 -33 38 -22 18 -60 51 -85 74
-36 33 -43 44 -32 54 6 7 12 18 12 24 0 5 -9 -1 -20 -15 -31 -40 -36 -1 -7 56
27 54 51 146 45 166 -3 7 -16 -7 -29 -32 -17 -32 -22 -57 -20 -89 2 -31 0 -41
-8 -36 -7 4 -9 15 -6 25 3 10 2 21 -3 24 -11 7 -24 -66 -16 -88 9 -24 -4 -20
-49 16 -77 61 -179 168 -160 168 9 0 50 -35 91 -77 l74 -78 -28 53 c-15 29
-41 61 -59 72 -30 19 -115 162 -115 195 0 30 20 14 21 -17 l2 -33 4 30 c2 17
13 59 25 94 14 43 19 79 16 113 -5 48 -3 53 38 99 45 51 77 104 72 119 -4 11
-139 -150 -149 -177 -4 -10 -14 -25 -22 -32 -14 -11 -15 -5 -10 61 4 50 11 79
24 93 30 33 87 175 71 175 -9 0 -76 -98 -85 -123 -4 -10 -3 -16 3 -12 5 3 -2
-15 -16 -40 -14 -24 -29 -47 -33 -49 -4 -3 -5 24 -3 60 3 39 0 69 -7 78 -9 10
-8 15 4 20 11 4 15 -1 15 -17 0 -12 5 -29 11 -37 8 -11 9 -1 5 39 -4 37 -1 62
9 82 8 15 15 30 15 34 0 14 -24 2 -51 -24z m81 -426 c-7 -22 -14 -44 -16 -50
-2 -5 -2 22 0 62 4 80 19 119 24 63 2 -19 -2 -53 -8 -75z"/>
<path d="M1440 1886 c0 -82 19 -108 21 -28 1 37 3 42 9 22 4 -14 5 -37 2 -52
-2 -16 1 -35 8 -43 7 -8 9 -15 4 -15 -4 0 3 -12 17 -27 13 -15 17 -22 7 -15
-13 10 -17 10 -20 0 -2 -6 -22 16 -43 51 -22 35 -41 59 -43 53 -2 -6 4 -22 13
-35 9 -14 18 -58 22 -106 3 -44 9 -81 13 -81 4 0 13 21 20 48 16 58 14 56 37
38 10 -8 28 -23 40 -33 12 -10 25 -31 29 -48 l7 -30 -35 33 c-39 36 -57 41
-55 13 0 -11 4 -18 8 -15 4 2 11 -14 17 -36 5 -22 6 -37 1 -34 -16 10 -9 -13
12 -40 11 -14 17 -26 13 -26 -4 0 1 -9 11 -20 19 -21 35 -26 35 -11 0 5 -10
12 -22 16 -14 4 -18 8 -11 12 8 3 11 14 7 31 l-7 27 33 -30 c17 -16 40 -46 50
-65 12 -22 19 -28 20 -17 0 16 2 16 23 3 12 -9 28 -12 35 -7 9 5 3 19 -21 52
-19 24 -42 66 -53 94 -10 27 -21 54 -23 60 -2 5 3 4 13 -4 9 -8 19 -12 21 -9
8 8 -6 38 -15 33 -5 -3 -20 10 -35 27 -15 18 -43 45 -63 61 -35 26 -36 29 -38
98 -1 52 -7 78 -21 97 -35 47 -43 40 -43 -42z m140 -315 c0 -5 3 -16 6 -25 5
-13 2 -13 -20 -3 -31 14 -34 37 -6 37 11 0 20 -4 20 -9z"/>
<path d="M1000 1820 c-136 -12 -201 -62 -90 -68 41 -2 72 4 136 29 46 18 81
36 78 41 -6 9 -10 9 -124 -2z"/>
<path d="M1305 1780 c-9 -14 46 -120 68 -132 25 -13 31 -5 23 36 -10 54 -75
122 -91 96z"/>
<path d="M1640 1775 c-6 -8 -9 -18 -6 -24 4 -5 -1 -16 -9 -24 -17 -17 -20 -38
-6 -34 5 1 22 -14 36 -33 l27 -35 -7 35 c-4 19 -8 56 -9 83 -1 50 -6 56 -26
32z"/>
<path d="M1145 1699 c-70 -11 -188 -52 -192 -66 -7 -20 95 -26 163 -11 61 15
139 62 128 79 -6 10 -29 10 -99 -2z m21 -26 c-15 -4 -16 -7 -5 -14 9 -6 4 -7
-16 -4 -16 3 -43 1 -60 -4 -27 -8 -28 -9 -6 -10 13 -1 22 -3 19 -6 -3 -3 -25
-2 -49 2 l-44 7 70 17 c39 9 79 17 90 17 19 0 19 -1 1 -5z"/>
<path d="M1384 1609 c0 -11 7 -19 16 -19 9 0 27 -12 41 -26 13 -14 33 -31 44
-36 19 -10 6 6 -56 72 -25 26 -45 30 -45 9z"/>
<path d="M1263 1582 c-64 -21 -81 -37 -30 -29 28 4 37 2 37 -9 0 -8 4 -14 9
-14 6 0 71 47 90 66 10 10 -59 1 -106 -14z"/>
<path d="M1951 1560 c-35 -48 -65 -100 -59 -105 2 -1 18 0 36 2 29 5 34 10 48
59 24 82 15 98 -25 44z"/>
<path d="M1120 1576 c0 -8 5 -18 10 -21 18 -11 11 -24 -22 -41 -25 -13 -28
-18 -16 -25 17 -9 58 -1 58 12 0 5 26 -20 58 -55 31 -35 80 -77 107 -94 28
-17 56 -41 63 -53 13 -20 12 -21 -20 -15 -27 6 -30 5 -15 -5 11 -6 42 -12 70
-14 44 -2 48 -1 24 7 -15 5 -25 14 -22 19 4 5 -2 6 -11 2 -12 -4 -15 -2 -12 8
12 32 -66 142 -149 210 -93 76 -123 92 -123 65z m105 -81 c38 -36 95 -105 75
-90 -30 24 -133 136 -105 115 11 -8 25 -19 30 -25z"/>
<path d="M1295 1527 c-16 -13 -17 -17 -6 -31 7 -9 28 -16 45 -16 27 -1 34 -7
54 -49 20 -44 91 -121 152 -164 17 -12 21 -20 13 -23 -25 -11 -12 -31 26 -42
59 -18 62 -15 19 31 -21 23 -50 67 -64 97 -34 73 -78 127 -123 149 -20 11 -40
19 -44 19 -23 1 -17 12 6 12 15 0 27 -4 27 -10 0 -12 36 -12 65 -1 17 7 14 10
-20 19 -79 21 -129 24 -150 9z m178 -151 c31 -44 4 -22 -34 27 -23 28 -26 36
-10 22 13 -11 33 -33 44 -49z"/>
<path d="M2034 1484 c-6 -22 -10 -24 -35 -19 -47 11 -33 -10 16 -23 25 -6 54
-21 65 -32 11 -11 30 -20 43 -20 17 0 12 6 -25 30 -43 27 -47 32 -42 60 8 37
-13 41 -22 4z"/>
<path d="M980 1462 c0 -11 80 -91 106 -105 10 -6 38 -16 63 -23 l46 -12 -65
-1 c-36 -1 -81 3 -99 9 -40 11 -49 7 -32 -14 10 -11 8 -15 -6 -20 -10 -3 2 -3
27 -1 l45 5 -30 -15 c-16 -8 -36 -14 -42 -15 -24 0 -13 -18 15 -24 15 -3 88
-4 162 -4 l135 2 -100 12 c-55 7 -105 13 -111 13 -7 1 -14 7 -17 14 -4 10 2
13 19 9 13 -2 63 -1 112 3 72 7 81 9 53 16 -20 4 -53 26 -85 58 -35 35 -68 56
-106 69 -30 11 -63 23 -72 27 -10 4 -18 3 -18 -3z m165 -82 c25 -22 43 -40 39
-40 -10 0 -134 70 -134 75 0 3 11 5 24 5 14 0 44 -17 71 -40z"/>
<path d="M1130 1440 c6 -11 20 -25 33 -31 12 -7 38 -25 57 -41 45 -37 57 -36
29 3 -42 59 -146 119 -119 69z"/>
<path d="M1855 1425 c-3 -8 -7 -21 -9 -29 -3 -10 -13 -12 -28 -9 l-23 6 25
-29 c43 -50 52 -72 39 -97 -11 -20 -11 -21 5 -8 9 8 18 12 20 10 1 -2 12 -20
24 -39 26 -44 89 -105 77 -75 -4 11 -9 29 -10 40 -1 11 -5 27 -8 35 -2 8 -10
34 -16 57 -6 23 -16 45 -21 48 -6 4 1 25 16 51 14 24 22 44 17 44 -6 0 -18
-16 -29 -35 -18 -34 -37 -42 -61 -27 -8 5 -8 14 3 32 l15 25 -6 -27 c-4 -20
-1 -28 8 -28 16 0 40 47 32 61 -10 15 -65 11 -70 -6z"/>
<path d="M1996 1394 c-9 -23 -6 -156 4 -179 7 -17 9 -14 9 13 1 18 5 31 10 28
9 -6 17 23 28 98 4 27 1 41 -8 47 -21 13 -36 11 -43 -7z"/>
<path d="M2152 1284 c-32 -27 -46 -49 -61 -97 -11 -34 -23 -70 -27 -81 -4 -10
14 1 39 25 32 31 53 64 72 112 15 38 25 70 23 73 -3 2 -23 -12 -46 -32z"/>
<path d="M1281 1215 c-35 -17 -61 -34 -59 -38 1 -4 -31 -40 -72 -82 -74 -75
-79 -86 -24 -62 29 12 45 24 115 85 37 32 38 33 68 18 39 -21 68 -22 52 -2 -9
11 -5 15 21 21 38 9 32 7 80 28 45 20 51 21 42 5 -4 -7 -3 -9 1 -5 15 14 14
35 -3 42 -10 4 -49 10 -88 14 -66 6 -75 5 -133 -24z m48 -1 l-24 -27 35 7 c54
11 127 17 110 10 -8 -4 -18 -11 -21 -16 -3 -5 -32 -10 -64 -10 -38 0 -71 -7
-94 -20 -32 -17 -29 -14 19 31 60 55 78 66 39 25z"/>
<path d="M1467 1127 c-22 -34 -107 -117 -119 -117 -5 0 2 14 16 31 30 36 60
89 53 95 -8 8 -67 -47 -97 -91 -34 -50 -38 -75 -12 -75 25 0 127 52 127 65 0
6 4 16 8 23 5 6 5 17 1 24 -4 7 -3 8 4 4 7 -4 18 6 27 25 20 37 14 49 -8 16z"/>
<path d="M1758 1099 c-15 -11 -43 -46 -62 -77 -41 -69 -91 -190 -82 -200 4 -4
36 22 70 58 34 36 93 92 131 125 59 51 66 60 47 63 -27 4 -102 -37 -102 -55 0
-9 5 -11 13 -7 6 4 1 -5 -12 -19 -14 -15 -26 -25 -28 -23 -3 2 10 37 27 76 16
40 29 74 28 76 -2 1 -15 -7 -30 -17z m-48 -116 c-33 -59 -63 -99 -40 -53 24
48 62 110 67 110 3 0 -10 -26 -27 -57z"/>
<path d="M662 2521 c-36 -31 -41 -40 -29 -49 11 -9 18 -8 32 8 28 31 35 24 35
-32 0 -80 10 -88 59 -49 23 18 41 36 41 40 0 19 -15 19 -41 0 l-29 -20 0 59
c0 81 -14 90 -68 43z"/>
<path d="M2301 2546 c-9 -10 -8 -15 4 -20 22 -8 19 -18 -20 -63 -38 -45 -42
-58 -22 -66 8 -3 30 15 52 44 36 44 41 47 56 33 11 -10 19 -12 24 -5 8 15 2
24 -44 60 -32 26 -41 28 -50 17z"/>
<path d="M544 2400 c-28 -11 -54 -48 -54 -77 0 -35 42 -76 78 -76 77 0 110 88
51 137 -33 28 -42 30 -75 16z m60 -49 c31 -35 0 -80 -45 -66 -24 8 -35 50 -19
70 17 21 43 19 64 -4z"/>
<path d="M2424 2400 c-28 -11 -54 -48 -54 -77 0 -35 42 -76 78 -76 70 0 105
76 60 127 -27 29 -55 38 -84 26z m60 -49 c21 -23 9 -56 -24 -66 -43 -14 -71
52 -32 74 25 15 37 13 56 -8z"/>
<path d="M263 1347 c-53 -8 -63 -13 -63 -29 0 -16 5 -19 25 -14 14 4 45 9 70
13 35 4 45 10 45 24 0 11 -3 18 -7 18 -5 -1 -36 -6 -70 -12z"/>
<path d="M2698 1333 c-38 -44 -28 -92 22 -113 28 -12 34 -11 58 7 33 25 41 76
16 104 -22 24 -76 25 -96 2z m70 -22 c24 -15 10 -56 -19 -59 -34 -4 -54 20
-39 47 11 22 35 27 58 12z"/>
<path d="M303 1148 c-29 -11 -53 -27 -53 -34 0 -17 24 -18 52 -3 31 17 33 3 4
-32 -25 -29 -32 -60 -13 -60 4 0 32 8 62 17 40 13 55 23 55 36 0 22 1 22 -44
3 -43 -18 -45 -13 -11 27 26 31 33 69 13 67 -7 -1 -37 -10 -65 -21z"/>
<path d="M2616 1083 c-6 -13 2 -26 30 -51 21 -17 35 -34 33 -36 -2 -2 -25 -1
-51 3 -37 6 -48 5 -53 -7 -7 -19 -10 -18 67 -26 59 -6 68 -4 77 12 8 16 1 28
-43 71 -46 46 -54 50 -60 34z"/>
<path d="M433 874 c-35 -48 -40 -60 -30 -76 7 -10 16 -17 22 -14 5 2 36 9 68
16 32 8 56 18 54 24 -5 13 -37 13 -87 2 l-35 -9 38 42 c31 34 36 45 26 57 -6
8 -12 14 -13 14 -1 0 -20 -25 -43 -56z"/>
<path d="M2481 836 c-9 -11 -1 -21 40 -51 45 -32 80 -40 79 -18 -1 4 -25 25
-54 45 -44 31 -56 35 -65 24z"/>
<path d="M593 653 l-41 -43 30 -31 c22 -21 34 -27 41 -20 8 8 5 16 -11 27 -18
13 -21 19 -11 30 10 13 14 12 30 -2 25 -23 37 -10 15 15 -23 25 -2 39 24 16
13 -11 20 -13 25 -5 8 13 -32 61 -49 59 -6 -1 -30 -21 -53 -46z"/>
<path d="M2332 667 c-9 -10 -1 -24 38 -62 l50 -49 27 27 c19 19 24 30 17 37
-8 8 -15 6 -24 -5 -12 -14 -18 -11 -55 25 -34 33 -44 38 -53 27z"/>
<path d="M810 536 c0 -8 9 -18 20 -21 30 -10 24 -21 -19 -33 -34 -11 -71 -38
-60 -45 2 -1 19 -12 37 -25 18 -13 37 -20 42 -17 16 10 11 23 -10 30 -31 10
-24 23 20 36 35 11 70 35 59 42 -2 1 -18 12 -36 25 -37 25 -53 28 -53 8z"/>
<path d="M2136 508 c-23 -32 -20 -65 9 -93 28 -29 36 -30 75 -10 35 18 47 54
29 87 -16 31 -28 38 -66 38 -22 0 -37 -7 -47 -22z m84 -29 c9 -15 8 -24 -1
-35 -25 -31 -80 3 -66 40 9 23 54 20 67 -5z"/>
<path d="M1043 410 c-44 -18 -56 -77 -23 -110 26 -26 74 -26 100 0 51 51 -9
137 -77 110z m61 -46 c8 -22 -11 -54 -33 -54 -29 0 -45 25 -31 49 13 25 55 28
64 5z"/>
<path d="M1872 388 c-11 -14 -10 -97 2 -117 10 -16 48 -14 73 4 12 9 26 15 30
14 4 -1 17 -1 28 0 19 2 19 3 -2 13 -12 6 -23 22 -25 36 -3 24 -4 25 -20 9
-14 -14 -21 -15 -42 -5 -33 15 -33 28 0 28 16 0 24 5 22 13 -6 17 -52 21 -66
5z"/>
<path d="M1295 303 c-3 -27 -9 -58 -12 -70 -4 -18 -1 -23 15 -23 17 0 21 7 24
43 l3 42 25 -47 c29 -58 60 -66 60 -15 0 17 3 49 6 70 5 29 3 37 -9 37 -17 0
-27 -20 -27 -58 -1 -24 -4 -21 -26 21 -13 26 -31 47 -38 47 -9 0 -16 -17 -21
-47z"/>
<path d="M1601 293 c-6 -27 -13 -58 -17 -70 -5 -17 -2 -23 10 -23 9 0 19 7 22
15 7 17 54 21 54 5 0 -5 9 -10 20 -10 26 0 26 0 -10 70 -39 77 -64 81 -79 13z
m52 -23 c4 -15 0 -20 -15 -20 -14 0 -18 5 -14 16 3 9 6 20 6 25 0 17 17 1 23
-21z"/>
</g>
</svg>
